<?xml version="1.0"?><svg width="1440" height="1440" xmlns="http://www.w3.org/2000/svg">
 <title>polka dot whale</title>
 <g>
  <title>Layer 1</title>
  <g id="svg_373">
   <path id="svg_374" d="m841.687317,818.514099c-245.485352,-19.703552 -250.435547,258.656433 -396.742706,258.656433c-125.338501,0 -111.469299,-134.67218 -104.924011,-173.254517c14.512207,-1.083008 33.82666,-6.354675 57.562317,-21.226624c63.430786,-39.754211 25.047546,-117.142761 25.047546,-117.142761c-1.239807,27.090698 -37.198669,29.557373 -37.198669,29.557373c-67.21759,3.13092 -74.824768,55.760132 -77.079956,83.752075c-8.821655,-20.858398 -29.930054,-59.026001 -64.962402,-55.798035c-47.33197,4.358032 -37.575195,23.262085 -88.321594,-2.910828c0,0 -7.840088,75.535645 70.724976,94.723267c20.41864,4.988159 36.500671,4.781067 49.007446,2.09845c-4.704895,403.639099 382.877655,495.798157 621.449738,394.220642c274.793213,-116.990601 190.922607,-472.971924 -54.562622,-492.675476l-0.000061,0z" fill="#007fff"/>
   <path id="svg_375" d="m846.463928,772.654602c7.704468,-16.149719 62.254517,-127.855774 162.088623,-102.093384c220.573303,56.927795 181.555237,-233.008362 7.679199,-188.219269c-136.224731,35.0961 -177.214355,280.826813 -180.544067,302.908234c0,0 -0.380981,2.970276 0.807983,3.596497c4.692383,2.441101 9.968262,-16.192078 9.968262,-16.192078z" fill="#007fff"/>
   <path id="svg_376" d="m838.932922,628.979187c9.608521,-40.452271 -39.618896,-371.42038 150.779297,-321.841736c96.309631,25.076965 71.211487,175.077698 -27.12915,178.475067c-92.349365,3.185913 -99.87207,103.587128 -114.4646,142.444183c0,0 -1.866089,6.431152 -5.525757,6.092651c0,0 -4.810547,-0.342651 -3.65979,-5.170166z" fill="#007fff"/>
   <path id="svg_377" d="m829.582336,785.394043c0,0 30.623779,-664.660645 -317.01416,-522.516785c0,0 -160.62912,74.431213 -59.986725,240.276917c39.432739,64.970886 130.08548,64.865112 197.412994,52.79834c0,0 57.587646,-12.523804 96.258911,33.602539c38.679688,46.125916 67.788696,184.631165 73.05188,194.887085c5.923462,11.575867 10.2771,0.951965 10.2771,0.951965l0,-0.000061z" fill="#007fff"/>
  </g>
  <g id="svg_378">
   <path id="svg_379" d="m835.837585,1027.319336c11.178345,15.39209 27.953979,19.589478 37.46106,9.363281c9.494385,-10.272827 8.114868,-31.081055 -3.071777,-46.486023c-11.207764,-15.438477 -27.97937,-19.614685 -37.46521,-9.37146c-9.48584,10.256226 -8.131836,31.055237 3.075928,46.494202z" fill="#aaffff"/>
   <path id="svg_380" d="m1011.160583,1211.256714c0,0 -131.803223,46.917236 -166.399902,-84.179443c0,0 -2.390503,-4.383423 0.668335,-6.663574c3.825073,-2.84314 9.62146,0.503052 9.62146,0.503052c30.302246,127.758667 153.182251,79.525391 153.182251,79.525391s5.868408,1.379639 6.777954,3.62207c0.90979,2.237915 -0.080322,6.718872 -3.850098,7.192505z" fill="#aaffff"/>
   <path id="svg_381" d="m850.463928,768.654602c7.704468,-16.149719 62.254517,-127.855774 162.088623,-102.093384c220.573303,56.927795 181.555237,-233.008362 7.679199,-188.219269c-136.224731,35.0961 -177.214355,280.826813 -180.544067,302.908234c0,0 -0.380981,2.970276 0.807983,3.596497c4.692383,2.441101 9.968262,-16.192078 9.968262,-16.192078z" fill="#aaffff"/>
   <path id="svg_382" d="m833.582336,781.394043c0,0 30.623779,-664.660645 -317.01416,-522.516785c0,0 -160.62912,74.431213 -59.986725,240.276917c39.432739,64.970886 130.08548,64.865112 197.412994,52.79834c0,0 57.587646,-12.523804 96.258911,33.602539c38.679688,46.125916 67.788696,184.631165 73.05188,194.887085c5.923462,11.575867 10.2771,0.951965 10.2771,0.951965l0,-0.000061z" fill="#aaffff"/>
  </g>
  <ellipse fill="#00007f" stroke="#000000" stroke-width="5" stroke-dasharray="null" stroke-linejoin="null" stroke-linecap="null" cx="167.792137" cy="840.51938" id="svg_2" rx="5.194805" ry="5.194805"/>
  <ellipse fill="#64C3A3" stroke="#000000" stroke-width="5" stroke-dasharray="null" stroke-linejoin="null" stroke-linecap="null" cx="172.986942" cy="845.714185" id="svg_3" ry="1.298701"/>
  <ellipse fill="#64C3A3" stroke="#000000" stroke-width="5" stroke-dasharray="null" stroke-linejoin="null" stroke-linecap="null" cx="165.194735" cy="839.220679" id="svg_4"/>
  <ellipse fill="#64C3A3" stroke="#000000" stroke-width="5" stroke-dasharray="null" stroke-linejoin="null" stroke-linecap="null" cx="170.389539" cy="841.818081" id="svg_5"/>
  <ellipse fill="#64C3A3" stroke="#000000" stroke-width="5" stroke-dasharray="null" stroke-linejoin="null" stroke-linecap="null" cx="171.688241" cy="841.818081" id="svg_6"/>
  <ellipse fill="#00007f" stroke="#000000" stroke-width="5" stroke-dasharray="null" stroke-linejoin="null" stroke-linecap="null" cx="188.571449" cy="875.584407" rx="5.194805" ry="5.194805" id="svg_7"/>
  <ellipse fill="#00007f" stroke="#000000" stroke-width="5" stroke-dasharray="null" stroke-linejoin="null" stroke-linecap="null" cx="272.987022" cy="856.103883" rx="5.194805" ry="5.194805" id="svg_8"/>
  <ellipse fill="#00007f" stroke="#000000" stroke-width="5" stroke-dasharray="null" stroke-linejoin="null" stroke-linecap="null" cx="239.220787" cy="841.818178" rx="5.194805" ry="5.194805" id="svg_9"/>
  <ellipse fill="#00007f" stroke="#000000" stroke-width="5" stroke-dasharray="null" stroke-linejoin="null" stroke-linecap="null" cx="198.961059" cy="849.610374" rx="5.194805" ry="5.194805" id="svg_10"/>
  <ellipse fill="#00007f" stroke="#000000" stroke-width="5" stroke-dasharray="null" stroke-linejoin="null" stroke-linecap="null" cx="388.571442" cy="813.246749" rx="5.194805" ry="5.194805" id="svg_11"/>
  <ellipse fill="#00007f" stroke="#000000" stroke-width="5" stroke-dasharray="null" stroke-linejoin="null" stroke-linecap="null" cx="223.636375" cy="901.558427" rx="5.194805" ry="5.194805" id="svg_12"/>
  <ellipse fill="#00007f" stroke="#000000" stroke-width="5" stroke-dasharray="null" stroke-linejoin="null" stroke-linecap="null" cx="257.402611" cy="885.974016" rx="5.194805" ry="5.194805" id="svg_13"/>
  <ellipse fill="#00007f" stroke="#000000" stroke-width="5" stroke-dasharray="null" stroke-linejoin="null" stroke-linecap="null" cx="226.233787" cy="870.389604" rx="5.194805" ry="5.194805" id="svg_14"/>
  <ellipse fill="#00007f" stroke="#000000" stroke-width="5" stroke-dasharray="null" stroke-linejoin="null" stroke-linecap="null" cx="375.584434" cy="845.714281" rx="5.194805" ry="5.194805" id="svg_15"/>
  <ellipse fill="#00007f" stroke="#000000" stroke-width="5" stroke-dasharray="null" stroke-linejoin="null" stroke-linecap="null" cx="415.844169" cy="828.831163" rx="5.194805" ry="5.194805" id="svg_16"/>
  <ellipse fill="#00007f" stroke="#000000" stroke-width="5" stroke-dasharray="null" stroke-linejoin="null" stroke-linecap="null" cx="332.727287" cy="844.415575" rx="5.194805" ry="5.194805" id="svg_17"/>
  <ellipse fill="#00007f" stroke="#000000" stroke-width="5" stroke-dasharray="null" stroke-linejoin="null" stroke-linecap="null" cx="353.50652" cy="817.142849" rx="5.194805" ry="5.194805" id="svg_18"/>
  <ellipse fill="#00007f" stroke="#000000" stroke-width="5" stroke-dasharray="null" stroke-linejoin="null" stroke-linecap="null" cx="418.441577" cy="797.662334" rx="5.194805" ry="5.194805" id="svg_19"/>
  <ellipse fill="#00007f" stroke="#000000" stroke-width="5" stroke-dasharray="null" stroke-linejoin="null" stroke-linecap="null" cx="278.181846" cy="902.857133" rx="5.194805" ry="5.194805" id="svg_20"/>
  <ellipse fill="#00007f" stroke="#000000" stroke-width="5" stroke-dasharray="null" stroke-linejoin="null" stroke-linecap="null" cx="372.987022" cy="879.480516" rx="5.194805" ry="5.194805" id="svg_21"/>
  <ellipse fill="#00007f" stroke="#000000" stroke-width="5" stroke-dasharray="null" stroke-linejoin="null" stroke-linecap="null" cx="402.857139" cy="859.999986" rx="5.194805" ry="5.194805" id="svg_22"/>
  <ellipse fill="#00007f" stroke="#000000" stroke-width="5" stroke-dasharray="null" stroke-linejoin="null" stroke-linecap="null" cx="335.324686" cy="874.285713" rx="5.194805" ry="5.194805" id="svg_23"/>
 </g>
</svg>